<?xml version="1.0" encoding="utf-8"?>
<!-- Generator: Adobe Illustrator 17.1.0, SVG Export Plug-In . SVG Version: 6.00 Build 0)  -->
<!DOCTYPE svg PUBLIC "-//W3C//DTD SVG 1.1//EN" "http://www.w3.org/Graphics/SVG/1.1/DTD/svg11.dtd">
<svg version="1.1" id="Layer_1" xmlns="http://www.w3.org/2000/svg" xmlns:xlink="http://www.w3.org/1999/xlink" x="0px" y="0px"
	 viewBox="0 0 512 512" enable-background="new 0 0 512 512" xml:space="preserve">
<g>
	<path fill="#5C2483" d="M512,462c0,27.5-22.5,50-50,50H50c-27.5,0-50-22.5-50-50V50C0,22.5,22.5,0,50,0h412c27.5,0,50,22.5,50,50
		V462z"/>
</g>
<path fill="#FFFFFF" d="M255,50.2l-204.8,128h409.6L255,50.2z M370.2,203.8l12.8,25.6V383h51.2V229.4l12.8-25.6H370.2z M267.8,203.8
	l12.8,25.6V383h51.2V229.4l12.8-25.6H267.8z M165.4,203.8l12.8,25.6V383h51.2V229.4l12.8-25.6H165.4z M63,203.8l12.8,25.6V383H127
	V229.4l12.8-25.6H63z M63,408.6l-12.8,51.2h409.6L447,408.6H63z M280.6,127c0,14.1-11.5,25.6-25.6,25.6s-25.6-11.5-25.6-25.6
	s11.5-25.6,25.6-25.6S280.6,112.9,280.6,127z"/>
</svg>
